# xmcd
#
# Track frame offsets:
#	150
#	11477
#	23375
#	33480
#	45357
#	55180
#	66767
#	80907
#	92405
#	104902
#	116690
#	131275
#
# Disc length: 1919 seconds
#
# Revision: 2
# Processed by: cddbd v1.5.2PL0 Copyright (c) Steve Scherf et al.
# Submitted via: audiograbber 1.83.01
#
DISCID=92077d0c
DTITLE=Paul Davis - A Little Bit Of Paul Davis
DYEAR=2009
DGENRE=Oldies
TTITLE0=I Just Wanna Keep It Together
TTITLE1=Supernatural Power
TTITLE2=If I Wuz A Musician
TTITLE3=Pollyanna
TTITLE4=Sally's Sayin' Somethin'
TTITLE5=A Little Bit Of Soap
TTITLE6=Mississippi River
TTITLE7=Who's Gonna Love Me Tomorrow
TTITLE8=Rainy Sunday Mornin
TTITLE9=Three Little Words
TTITLE10=When My Little Girl Is Smiling
TTITLE11=I Feel Better
EXTD=
EXTT0=
EXTT1=
EXTT2=
EXTT3=
EXTT4=
EXTT5=
EXTT6=
EXTT7=
EXTT8=
EXTT9=
EXTT10=
EXTT11=
PLAYORDER=
